# xmcd
# Copyright (C) 1995-1998 Ti Kan
#
# Track frame offsets:
#       150
#       23837
#       45137
#       59687
#       85337
#       109487
#       127475
#       148712
#       164237
#       190187
#       204287
#       222492
#
# Disc length: 3203 seconds
#
# Revision: 0
# Processed by: cddbd v1.5.1PL0 Copyright (c) Steve Scherf et al.
# Submitted via: CD-Transfer v1.0
#
DISCID=bd0c810c
DTITLE=Claudia Piani - 
DYEAR=1900
DGENRE=
TTITLE0=Gimme some head
TTITLE1=Turn on the tube
TTITLE2=Not like you
TTITLE3=Bloodletting
TTITLE4=You came down
TTITLE5=Broken spell
TTITLE6=Too young
TTITLE7=I heard it through the gravepine
TTITLE8=Still beaten
TTITLE9=Call me
TTITLE10=In my head
TTITLE11=Jimmy's bar
EXTD=
EXTT0=
EXTT1=
EXTT2=
EXTT3=
EXTT4=
EXTT5=
EXTT6=
EXTT7=
EXTT8=
EXTT9=
EXTT10=
EXTT11=
PLAYORDER=
